<svg width="141" height="33" viewBox="0 0 141 33" fill="none" xmlns="http://www.w3.org/2000/svg">
<path d="M62.488 24.24C61.096 24.24 59.928 24.032 58.984 23.616C58.04 23.184 57.312 22.632 56.8 21.96C56.304 21.272 56.04 20.544 56.008 19.776C56.008 19.648 56.056 19.536 56.152 19.44C56.264 19.328 56.392 19.272 56.536 19.272H57.76C57.952 19.272 58.096 19.32 58.192 19.416C58.288 19.512 58.352 19.624 58.384 19.752C58.464 20.136 58.656 20.52 58.96 20.904C59.28 21.272 59.72 21.584 60.28 21.84C60.856 22.08 61.592 22.2 62.488 22.2C63.864 22.2 64.872 21.96 65.512 21.48C66.168 20.984 66.496 20.328 66.496 19.512C66.496 18.952 66.32 18.504 65.968 18.168C65.632 17.816 65.112 17.504 64.408 17.232C63.704 16.96 62.792 16.664 61.672 16.344C60.504 16.008 59.536 15.64 58.768 15.24C58 14.84 57.424 14.344 57.04 13.752C56.672 13.16 56.488 12.408 56.488 11.496C56.488 10.632 56.72 9.864 57.184 9.192C57.648 8.504 58.312 7.96 59.176 7.56C60.056 7.16 61.12 6.96 62.368 6.96C63.36 6.96 64.224 7.096 64.96 7.368C65.712 7.624 66.336 7.976 66.832 8.424C67.328 8.856 67.704 9.328 67.96 9.84C68.216 10.336 68.352 10.824 68.368 11.304C68.368 11.416 68.328 11.528 68.248 11.64C68.168 11.736 68.04 11.784 67.864 11.784H66.592C66.48 11.784 66.36 11.752 66.232 11.688C66.12 11.624 66.032 11.504 65.968 11.328C65.872 10.672 65.504 10.12 64.864 9.672C64.224 9.224 63.392 9 62.368 9C61.328 9 60.48 9.2 59.824 9.6C59.184 10 58.864 10.624 58.864 11.472C58.864 12.016 59.016 12.472 59.32 12.84C59.624 13.192 60.104 13.504 60.76 13.776C61.416 14.048 62.272 14.336 63.328 14.64C64.608 14.992 65.656 15.368 66.472 15.768C67.288 16.152 67.888 16.64 68.272 17.232C68.672 17.808 68.872 18.552 68.872 19.464C68.872 20.472 68.608 21.336 68.08 22.056C67.552 22.76 66.808 23.304 65.848 23.688C64.904 24.056 63.784 24.24 62.488 24.24ZM72.5697 24C72.3937 24 72.2577 23.952 72.1617 23.856C72.0657 23.744 72.0177 23.608 72.0177 23.448V7.776C72.0177 7.6 72.0657 7.464 72.1617 7.368C72.2577 7.256 72.3937 7.2 72.5697 7.2H73.7697C73.9457 7.2 74.0817 7.256 74.1777 7.368C74.2897 7.464 74.3457 7.6 74.3457 7.776V13.728L80.7537 7.584C80.8177 7.52 80.9217 7.44 81.0657 7.344C81.2257 7.248 81.4337 7.2 81.6897 7.2H82.9857C83.1137 7.2 83.2257 7.248 83.3217 7.344C83.4177 7.44 83.4657 7.552 83.4657 7.68C83.4657 7.808 83.4337 7.912 83.3697 7.992L75.9537 15.24L83.8497 23.184C83.9297 23.28 83.9697 23.392 83.9697 23.52C83.9697 23.648 83.9217 23.76 83.8257 23.856C83.7297 23.952 83.6177 24 83.4897 24H82.1457C81.8737 24 81.6657 23.952 81.5217 23.856C81.3777 23.744 81.2737 23.664 81.2097 23.616L74.3457 16.848V23.448C74.3457 23.608 74.2897 23.744 74.1777 23.856C74.0817 23.952 73.9457 24 73.7697 24H72.5697ZM91.4718 24C91.3118 24 91.1758 23.952 91.0638 23.856C90.9678 23.744 90.9198 23.608 90.9198 23.448V17.784L85.1357 7.992C85.1198 7.944 85.1038 7.896 85.0878 7.848C85.0718 7.8 85.0638 7.744 85.0638 7.68C85.0638 7.552 85.1118 7.44 85.2078 7.344C85.3038 7.248 85.4158 7.2 85.5438 7.2H86.7918C86.9358 7.2 87.0638 7.24 87.1758 7.32C87.2878 7.384 87.3678 7.48 87.4158 7.608L92.0958 15.384L96.7758 7.608C96.8558 7.48 96.9438 7.384 97.0398 7.32C97.1518 7.24 97.2798 7.2 97.4238 7.2H98.6478C98.7918 7.2 98.9118 7.248 99.0078 7.344C99.1038 7.44 99.1518 7.552 99.1518 7.68C99.1518 7.744 99.1438 7.8 99.1278 7.848C99.1118 7.896 99.0878 7.944 99.0558 7.992L93.2958 17.784V23.448C93.2958 23.608 93.2398 23.744 93.1278 23.856C93.0318 23.952 92.8958 24 92.7198 24H91.4718ZM102.523 24C102.347 24 102.211 23.952 102.115 23.856C102.019 23.744 101.971 23.608 101.971 23.448V7.776C101.971 7.6 102.019 7.464 102.115 7.368C102.211 7.256 102.347 7.2 102.523 7.2H108.619C109.803 7.2 110.827 7.392 111.691 7.776C112.571 8.16 113.251 8.736 113.731 9.504C114.211 10.256 114.451 11.2 114.451 12.336C114.451 13.472 114.211 14.416 113.731 15.168C113.251 15.92 112.571 16.488 111.691 16.872C110.827 17.256 109.803 17.448 108.619 17.448H104.371V23.448C104.371 23.608 104.315 23.744 104.203 23.856C104.107 23.952 103.971 24 103.795 24H102.523ZM104.347 15.432H108.499C109.683 15.432 110.571 15.168 111.163 14.64C111.755 14.112 112.051 13.344 112.051 12.336C112.051 11.344 111.763 10.576 111.187 10.032C110.611 9.488 109.715 9.216 108.499 9.216H104.347V15.432ZM117.921 24C117.745 24 117.609 23.952 117.513 23.856C117.417 23.744 117.369 23.608 117.369 23.448V7.752C117.369 7.592 117.417 7.464 117.513 7.368C117.609 7.256 117.745 7.2 117.921 7.2H119.193C119.353 7.2 119.481 7.256 119.577 7.368C119.689 7.464 119.745 7.592 119.745 7.752V23.448C119.745 23.608 119.689 23.744 119.577 23.856C119.481 23.952 119.353 24 119.193 24H117.921ZM124.484 24C124.324 24 124.188 23.952 124.076 23.856C123.98 23.744 123.932 23.608 123.932 23.448V7.776C123.932 7.6 123.98 7.464 124.076 7.368C124.188 7.256 124.324 7.2 124.484 7.2H125.684C125.876 7.2 126.02 7.248 126.116 7.344C126.212 7.44 126.268 7.52 126.284 7.584L131.372 17.28L136.484 7.584C136.516 7.52 136.572 7.44 136.652 7.344C136.748 7.248 136.892 7.2 137.084 7.2H138.26C138.436 7.2 138.572 7.256 138.668 7.368C138.78 7.464 138.836 7.6 138.836 7.776V23.448C138.836 23.608 138.78 23.744 138.668 23.856C138.572 23.952 138.436 24 138.26 24H137.084C136.924 24 136.788 23.952 136.676 23.856C136.58 23.744 136.532 23.608 136.532 23.448V11.64L132.524 19.464C132.46 19.624 132.364 19.752 132.236 19.848C132.108 19.928 131.948 19.968 131.756 19.968H131.012C130.804 19.968 130.636 19.928 130.508 19.848C130.396 19.752 130.3 19.624 130.22 19.464L126.212 11.64V23.448C126.212 23.608 126.156 23.744 126.044 23.856C125.948 23.952 125.82 24 125.66 24H124.484Z" fill="white"/>
<rect y="11.113" width="15.7162" height="15.7162" rx="0.769231" transform="rotate(-45 0 11.113)" fill="#58B741"/>
<rect x="24.6953" y="11.113" width="15.7162" height="15.7162" rx="0.769231" transform="rotate(-45 24.6953 11.113)" fill="#398025"/>
<rect x="14.2188" y="23.7449" width="12.7227" height="12.7227" rx="0.769231" transform="rotate(-45 14.2188 23.7449)" fill="#67D34D"/>
</svg>
