<svg width="30" height="30" viewBox="0 0 30 30" fill="none" xmlns="http://www.w3.org/2000/svg">
<path fill-rule="evenodd" clip-rule="evenodd" d="M11.3093 13.8937L15.4958 18.3006C15.9497 18.7784 16.7717 18.8466 17.6875 18.3964C20.0182 17.4325 20.7936 17.1975 21.2363 17.6635L26.0487 22.7292C26.6176 23.328 26.4658 24.3254 25.8296 24.995C22.5265 28.472 17.1577 28.472 13.8546 24.995L4.86472 15.5321C1.57813 12.0725 1.57813 6.47555 4.86472 3.01599C5.51427 2.33225 6.51179 2.16402 7.10208 2.78538L11.9145 7.85109C12.3316 8.29017 12.108 9.10797 11.1973 11.5446C10.7739 12.4958 10.8418 13.4016 11.3093 13.8937Z" fill="white"/>
</svg>
